<svg viewBox="0 0 48 48" xml:space="preserve" xmlns="http://www.w3.org/2000/svg"><path clip-rule="evenodd" d="M43.102 14.113a22.285 22.285 0 0 0-1.064-1.688A3.984 3.984 0 0 0 44 9a4 4 0 0 0-4-4 3.982 3.982 0 0 0-3.425 1.963 21.782 21.782 0 0 0-1.688-1.064C35.939 4.167 37.826 3 40 3a6 6 0 0 1 6 6c0 2.174-1.168 4.061-2.898 5.113zM44 25c0 5.171-1.979 9.868-5.2 13.419l4.915 4.915a.977.977 0 0 1-1.381 1.381L37.419 39.8C33.868 43.021 29.171 45 24 45s-9.868-1.979-13.418-5.2l-4.916 4.915a.977.977 0 0 1-1.381-1.381L9.2 38.419C5.979 34.868 4 30.171 4 25 4 13.954 12.954 5 24 5s20 8.954 20 20zM24 7C14.059 7 6 15.059 6 25s8.059 18 18 18 18-8.059 18-18S33.941 7 24 7zm1 21.858V38a1 1 0 1 1-2 0v-9.142A3.99 3.99 0 0 1 20 25c0-.749.219-1.441.578-2.041l-4.293-4.292a.977.977 0 0 1 1.381-1.381l4.293 4.292A3.957 3.957 0 0 1 24 21a4 4 0 0 1 4 4 3.99 3.99 0 0 1-3 3.858zM24 23a2 2 0 1 0 .001 4.001A2 2 0 0 0 24 23zM8 5a4 4 0 0 0-4 4c0 1.462.793 2.727 1.963 3.425a21.974 21.974 0 0 0-1.064 1.688C3.168 13.061 2 11.174 2 9a6 6 0 0 1 6-6c2.174 0 4.061 1.167 5.113 2.899-.58.331-1.144.683-1.688 1.064A3.984 3.984 0 0 0 8 5z" fill-rule="evenodd" fill="#0ea5e9" class="fill-000000"></path></svg>