<svg viewBox="0 0 64 64" xmlns="http://www.w3.org/2000/svg"><path d="m61.98 37.8-1.36-6.77a5 5 0 0 0-4.9-4.03h-.61a3.074 3.074 0 0 0-3.02 2.26A3.006 3.006 0 0 0 55 33v6.68a6.866 6.866 0 0 0-3.04-.68 6.7 6.7 0 0 0-3.41.98 6.912 6.912 0 0 0-2.85-.94A5.374 5.374 0 0 0 45 39h-2v-2.08A8.06 8.06 0 0 0 46.74 32H47a3 3 0 0 0 0-6v-2a8 8 0 0 0-16 0v2a3 3 0 0 0 0 6h.26A8.06 8.06 0 0 0 35 36.92V39h-2a6.9 6.9 0 0 0-3.55.98 6.7 6.7 0 0 0-3.41-.98h-.05a7 7 0 0 0-2.99.68V33a3.07 3.07 0 0 0 2.91-2.26A3.006 3.006 0 0 0 23 27h-.72a5 5 0 0 0-4.9 4.02l-1.36 6.78a1.415 1.415 0 0 0-.02.29l.84 9.18A2.979 2.979 0 0 0 19.83 50H28v11a1 1 0 0 0 1 1h20a1 1 0 0 0 1-1V50h8.17a2.979 2.979 0 0 0 2.99-2.73l.84-9.18a1.415 1.415 0 0 0-.02-.29ZM47 28a1 1 0 0 1 0 2Zm-16 2a1 1 0 0 1 0-2Zm23.29.69a.949.949 0 0 1-.26-.94 1.1 1.1 0 0 1 1.08-.75h.61a3.007 3.007 0 0 1 2.94 2.42l.32 1.58H57v-1a1 1 0 0 0-1-1h-1a.949.949 0 0 1-.71-.31ZM44.12 41l-.7 1.75-1.71-.57-.37-.73.9-.45ZM33 24a6 6 0 0 1 12 0v.97a2.009 2.009 0 0 1-1.6-1.48l-.43-1.73A1 1 0 0 0 41 22a3.009 3.009 0 0 1-3 3h-5Zm0 6v-3h5a5.012 5.012 0 0 0 3.93-1.91A3.99 3.99 0 0 0 45 26.98V30a6 6 0 0 1-12 0Zm2.76 11 .9.45-.37.73-1.71.57-.7-1.75Zm-16.42-9.59A3.009 3.009 0 0 1 22.28 29H23a1.019 1.019 0 0 1 .97 1.25 1.1 1.1 0 0 1-1.08.75H22a1 1 0 0 0-1 1v1h-1.98ZM35.1 60H30V49a1 1 0 0 0-1-1h-9.17a1 1 0 0 1-1-.91l-.82-9.04.61-3.05H21v6.54a1 1 0 0 0 1.67.74A5.273 5.273 0 0 1 26.02 41a4.774 4.774 0 0 1 2.82.98.99.99 0 0 0 1.2 0 4.82 4.82 0 0 1 1.75-.81l1.28 3.2A1 1 0 0 0 34 45a1.248 1.248 0 0 0 .32-.05l2.41-.81.05.05Zm2.01 0 1.49-14.09a.934.934 0 0 0 .8 0L40.89 60Zm1.11-17.2.4-.8h.76l.4.8-.78.79ZM41 39.38l-1.24.62h-1.52L37 39.38v-1.64a7.822 7.822 0 0 0 4 0Zm18.17 7.71a1 1 0 0 1-1 .91H49a1 1 0 0 0-1 1v11h-5.1l-1.68-15.81.05-.05 2.41.81A1.248 1.248 0 0 0 44 45a1 1 0 0 0 .93-.63l1.29-3.21a4.967 4.967 0 0 1 1.74.82.99.99 0 0 0 1.2 0 4.774 4.774 0 0 1 2.82-.98h.03a5 5 0 0 1 3.32 1.28.981.981 0 0 0 1.08.17 1 1 0 0 0 .59-.91V35h2.38l.61 3.05Z" fill="#0ea5e9" class="fill-000000"></path><path d="M35 28h2v2h-2zM41 28h2v2h-2zM13 13h2v2h-2z" fill="#0ea5e9" class="fill-000000"></path><path d="M15 22.278V19.91a5.964 5.964 0 0 0 2.471-1.025l1.676 1.675a1.992 1.992 0 0 0 .51 1.925 2 2 0 1 0 .9-3.339l-1.676-1.676A5.964 5.964 0 0 0 19.91 15h2.368a2 2 0 1 0 0-2H19.91a5.964 5.964 0 0 0-1.025-2.471l1.676-1.676a2.016 2.016 0 0 0 .51.075 2 2 0 0 0 1.414-.584 2 2 0 1 0-3.338-.9l-1.676 1.671A5.964 5.964 0 0 0 15 8.09V5.722a2 2 0 1 0-2 0V8.09a5.964 5.964 0 0 0-2.471 1.025L8.853 7.44a1.992 1.992 0 0 0-.51-1.925 2.015 2.015 0 1 0-.9 3.339l1.676 1.676A5.964 5.964 0 0 0 8.09 13H5.722a2 2 0 1 0 0 2H8.09a5.964 5.964 0 0 0 1.025 2.471l-1.676 1.676a1.994 1.994 0 0 0-1.924.509 2 2 0 1 0 3.338.9l1.676-1.675A5.964 5.964 0 0 0 13 19.91v2.368a2 2 0 1 0 2 0Zm-3.707-6.985-.726.726a3.878 3.878 0 0 1 0-4.038l.726.726 1.414-1.414-.726-.726a3.878 3.878 0 0 1 4.038 0l-.726.726 1.414 1.414.726-.726a3.878 3.878 0 0 1 0 4.038l-.726-.726-1.414 1.414.726.726a3.878 3.878 0 0 1-4.038 0l.726-.726ZM49.567 13.019l-1.516 1.517 1.414 1.414 1.516-1.517a3.915 3.915 0 0 0 1.019.425V17h2v-2.142a3.915 3.915 0 0 0 1.019-.425l1.516 1.517 1.414-1.414-1.516-1.517A3.915 3.915 0 0 0 56.858 12H59v-2h-2.142a3.915 3.915 0 0 0-.425-1.019l1.516-1.517-1.414-1.414-1.516 1.517A3.915 3.915 0 0 0 54 7.142V5h-2v2.142a3.915 3.915 0 0 0-1.019.425L49.465 6.05l-1.414 1.414 1.516 1.517A3.915 3.915 0 0 0 49.142 10H47v2h2.142a3.915 3.915 0 0 0 .425 1.019ZM53 9a2 2 0 1 1-2 2 2 2 0 0 1 2-2ZM31 7h2v2h-2zM37 10h2v2h-2zM41 2h2v2h-2zM4 33h2v2H4zM10 29h2v2h-2zM56 20h2v2h-2zM6 42h2v2H6zM12 50h2v2h-2zM6 54h2v2H6z" fill="#0ea5e9" class="fill-000000"></path></svg>