<svg viewBox="0 0 32 32" xml:space="preserve" xmlns="http://www.w3.org/2000/svg" enable-background="new 0 0 32 32"><path d="m21.9 18.1-.6-.8c-.9-1.4-1.4-3.1-1.4-4.8 0-1.8-1.2-3.3-2.8-3.7-.2-.5-.6-.8-1.1-.8-.5 0-.9.3-1.1.7-1.6.5-2.8 2-2.8 3.7 0 1.7-.5 3.4-1.4 4.8l-.6.8c-.3.4 0 .9.5.9h10.8c.5.1.8-.4.5-.8zM19 19c0 1.7-1.3 3-3 3s-3-1.3-3-3M3.9 9l3.4 2M2 16h4M3.9 23l3.4-2M28.1 23l-3.4-2M30 16h-4M28.1 9l-3.4 2" fill="none" stroke="#0ea5e9" stroke-width="2" stroke-linecap="round" stroke-linejoin="round" stroke-miterlimit="10" class="stroke-000000"></path></svg>