<svg data-name="Layer 1" viewBox="0 0 64 64" xmlns="http://www.w3.org/2000/svg"><path d="M15 34h6l-6-10v-5A13 13 0 0 0 2 6v56h5V49h7a1 1 0 0 0 1-1v-5.667L10 39h5ZM9.5 23A3.504 3.504 0 0 1 6 19.5h1a2.5 2.5 0 0 0 5 0h1A3.504 3.504 0 0 1 9.5 23ZM49 19v5l-6 10h6v6.5h6v1h-6V48a1 1 0 0 0 1 1h7v13h5V6a13 13 0 0 0-13 13Zm8 .5h1a3.5 3.5 0 0 1-7 0h1a2.5 2.5 0 0 0 5 0ZM43 2H21v19h5l-2 14 8-14h11ZM30.774 17.633a1.002 1.002 0 0 1-.724.366L30 18a.998.998 0 0 1-.707-.293l-5-5 1.414-1.414 4.219 4.219 8.3-10.145 1.548 1.266Z" fill="#0ea5e9" class="fill-000000"></path></svg>